<svg aria-hidden="true" style="position: absolute; width: 0; height: 0; overflow: hidden;" version="1.1" xmlns="http://www.w3.org/2000/svg" xmlns:xlink="http://www.w3.org/1999/xlink">
<defs>
<symbol id="icon-pinia" viewBox="0 0 21 32">
<path fill="#000" style="fill: var(--color1, #000)" d="M9.768 15.54c2.165-2.063 1.504-4.614-0.456-7.705s-5.908-4.191-6.644-3.49c-0.736 0.702-0.9 5.718 1.061 8.809s3.874 4.449 6.040 2.386z"></path>
<path fill="#000" style="fill: var(--color1, #000)" d="M11.64 15.826c1.602 2.525 3.743 1.602 6.393-0.923s3.75-7.363 3.205-8.221c-0.545-0.859-4.685-0.816-7.335 1.709s-3.865 4.91-2.263 7.435z"></path>
<path fill="#000" style="fill: var(--color1, #000)" d="M10.764 14.436c2.66 0.327 3.705-2.13 4.193-6.102s-1.523-8.169-2.427-8.28-3.944 3.467-4.431 7.438c-0.488 3.972 0.006 6.618 2.665 6.944z"></path>
<path fill="#000" style="fill: var(--color1, #000)" d="M10.095 32c5.576 0 10.098-1.62 10.098-8.966s-4.522-13.374-10.098-13.374c-5.576 0-10.095 6.028-10.095 13.374s4.519 8.966 10.095 8.966z"></path>
<path fill="#eaadcc" style="fill: var(--color2, #eaadcc)" d="M16.637 20.864c0 0.37-0.646 0.671-1.442 0.671s-1.442-0.3-1.442-0.671c0-0.37 0.646-0.671 1.442-0.671s1.442 0.3 1.442 0.671z"></path>
<path fill="#eaadcc" style="fill: var(--color2, #eaadcc)" d="M6.027 20.637c-0.045 0.368-0.723 0.587-1.513 0.49s-1.395-0.474-1.35-0.842c0.045-0.368 0.723-0.587 1.513-0.49s1.395 0.474 1.35 0.842z"></path>
<path fill="none" stroke="#000" style="stroke: var(--color1, #000)" stroke-linejoin="round" stroke-linecap="round" stroke-miterlimit="4" stroke-width="0.4025" d="M11.019 20.626c-0.434 0.353-0.935 0.497-1.504 0.432s-0.99-0.301-1.265-0.708"></path>
<path fill="#000" style="fill: var(--color1, #000)" d="M5.433 17.135c0.398-0.014 0.764 0.135 1.034 0.387s0.444 0.606 0.458 1.005c0.014 0.398-0.135 0.764-0.387 1.034s-0.606 0.444-1.005 0.458c-0.398 0.014-0.764-0.135-1.034-0.387s-0.444-0.606-0.458-1.005c-0.014-0.398 0.135-0.764 0.387-1.034s0.606-0.444 1.005-0.458z"></path>
<path fill="#fff" style="fill: var(--color3, #fff)" d="M5.509 18.341c-0.009-0.259-0.227-0.462-0.486-0.453s-0.462 0.227-0.453 0.486 0.227 0.462 0.486 0.453c0.259-0.009 0.462-0.227 0.453-0.486z"></path>
<path fill="#000" style="fill: var(--color1, #000)" d="M14.172 17.501c0.398-0.014 0.764 0.135 1.034 0.387s0.444 0.606 0.458 1.005c0.014 0.398-0.135 0.764-0.387 1.034s-0.606 0.444-1.005 0.458c-0.398 0.014-0.764-0.135-1.034-0.387s-0.444-0.606-0.458-1.005c-0.014-0.398 0.135-0.764 0.387-1.034s0.607-0.444 1.005-0.458z"></path>
<path fill="#fff" style="fill: var(--color3, #fff)" d="M6.724 18.533c0.024 0.685-0.512 1.26-1.197 1.284s-1.26-0.512-1.284-1.197c-0.024-0.685 0.512-1.26 1.197-1.284s1.26 0.512 1.284 1.197zM7.126 18.519c-0.032-0.907-0.793-1.617-1.7-1.585s-1.617 0.793-1.585 1.7c0.032 0.907 0.793 1.617 1.7 1.585s1.617-0.793 1.585-1.7z"></path>
<path fill="#fff" style="fill: var(--color3, #fff)" d="M15.463 18.899c0.024 0.685-0.512 1.26-1.197 1.284s-1.26-0.512-1.284-1.197c-0.024-0.685 0.512-1.26 1.197-1.284s1.26 0.512 1.284 1.197zM15.865 18.885c-0.032-0.907-0.793-1.617-1.7-1.585s-1.617 0.793-1.585 1.7c0.032 0.907 0.793 1.617 1.7 1.585s1.617-0.793 1.585-1.7z"></path>
<path fill="#fff" style="fill: var(--color3, #fff)" d="M14.248 18.707c-0.009-0.259-0.227-0.462-0.486-0.453s-0.462 0.227-0.453 0.486 0.227 0.462 0.486 0.453 0.462-0.227 0.453-0.486z"></path>
<path fill="none" stroke="#ecb732" style="stroke: var(--color4, #ecb732)" stroke-linejoin="miter" stroke-linecap="round" stroke-miterlimit="4" stroke-width="0.7379" d="M2.449 23.715l4.964 5.166"></path>
<path fill="none" stroke="#ecb732" style="stroke: var(--color4, #ecb732)" stroke-linejoin="miter" stroke-linecap="round" stroke-miterlimit="4" stroke-width="0.7379" d="M6.742 24.319l-3.153 3.354"></path>
<path fill="none" stroke="#ecb732" style="stroke: var(--color4, #ecb732)" stroke-linejoin="miter" stroke-linecap="round" stroke-miterlimit="4" stroke-width="0.7379" d="M17.677 23.715l-4.964 5.166"></path>
<path fill="none" stroke="#ecb732" style="stroke: var(--color4, #ecb732)" stroke-linejoin="miter" stroke-linecap="round" stroke-miterlimit="4" stroke-width="0.7379" d="M13.384 24.319l3.153 3.354"></path>
<path fill="none" stroke="#ffc73b" style="stroke: var(--color5, #ffc73b)" stroke-linejoin="miter" stroke-linecap="round" stroke-miterlimit="4" stroke-width="0.7379" d="M12.109 12.31l-3.287 3.287"></path>
<path fill="none" stroke="#ffc73b" style="stroke: var(--color5, #ffc73b)" stroke-linejoin="miter" stroke-linecap="round" stroke-miterlimit="4" stroke-width="0.7379" d="M11.438 15.597l-3.287-3.287"></path>
</symbol>
<symbol id="icon-vuex" viewBox="0 0 32 32">
<path fill="#41b883" style="fill: var(--color6, #41b883)" d="M3.292 28.82l10.166-20.506 2.54 5.002v5.26l-5.050 10.248zM28.708 28.838l-10.168-20.51-2.54 5.002v5.26l5.034 10.248z"></path>
<path fill="#35495e" style="fill: var(--color7, #35495e)" d="M3.292 3.164l6.354 12.836 3.812-7.688-2.54-5.148zM28.708 3.164l-6.354 12.836-3.814-7.688 2.54-5.148z"></path>
</symbol>
<symbol id="icon-nuxt" viewBox="0 0 32 32">
<path fill="#00c58e" style="fill: var(--color8, #00c58e)" d="M26.299 27.029l0.031-0.060c0.025-0.044 0.049-0.096 0.069-0.149l0.002-0.007 0.003-0.007c0.061-0.16 0.096-0.344 0.096-0.537 0-0.096-0.009-0.191-0.026-0.282l0.001 0.009 0.001 0.009c-0.056-0.313-0.166-0.592-0.319-0.841l0.006 0.010 0.007 0.011-7.089-12.471-1.083-1.893-8.161 14.364c-0.129 0.233-0.225 0.504-0.27 0.791l-0.002 0.014-0.001 0.015c-0.017 0.089-0.026 0.192-0.026 0.296 0 0.236 0.049 0.461 0.137 0.665l-0.004-0.011-0.004-0.011c0.022 0.053 0.044 0.098 0.069 0.141l-0.003-0.005-0.003-0.005c0.213 0.367 0.667 0.803 1.667 0.803h13.197c0.209 0 1.233-0.043 1.705-0.851zM17.996 14.608l6.479 11.397h-12.955zM31.661 25.187l-9.355-16.48c-0.096-0.173-0.636-1.049-1.576-1.049-0.423 0-1.029 0.18-1.523 1.047l-1.209 2.12 1.076 1.893 1.667-2.949 9.255 16.24h-3.52c0.014 0.078 0.022 0.168 0.022 0.26 0 0.198-0.036 0.387-0.102 0.561l0.004-0.011 0.004-0.011c-0.023 0.065-0.049 0.12-0.079 0.173l0.003-0.005 0.003-0.005-0.031 0.060c-0.473 0.807-1.496 0.849-1.696 0.849h5.505c0.203 0 1.223-0.043 1.696-0.849 0.209-0.367 0.36-0.983-0.143-1.844zM9.739 27.076c-0.019-0.032-0.039-0.073-0.057-0.114l-0.003-0.009-0.003-0.008c-0.087-0.194-0.138-0.42-0.138-0.658 0-0.103 0.009-0.204 0.028-0.301l-0.002 0.010-0.001 0.009h-7.561l11.239-19.776 3.689 6.485 1.069-1.893-3.216-5.665c-0.089-0.163-0.633-1.036-1.569-1.036-0.423 0-1.029 0.183-1.523 1.049l-11.384 20.016c-0.096 0.173-0.567 1.083-0.1 1.889 0.213 0.367 0.667 0.803 1.667 0.803h9.535c-0.993 0-1.453-0.429-1.669-0.801z"></path>
</symbol>
<symbol id="icon-vue" viewBox="0 0 32 32">
<path fill="#4fc08d" style="fill: var(--color9, #4fc08d)" d="M32 2.147h-13.253l-2.747 4.733-2.747-4.733h-13.253l16 27.707zM16 18.773l-9.12-15.8h5.907l3.213 5.573 3.213-5.573h5.907z"></path>
</symbol>
<symbol id="icon-bootstrap" viewBox="0 0 32 32">
<path fill="#563d7c" style="fill: var(--color10, #563d7c)" d="M0 27.874c0 2.279 1.847 4.126 4.126 4.126h23.748c2.279 0 4.126-1.847 4.126-4.126v-23.748c0-2.279-1.847-4.126-4.126-4.126h-23.748c-2.279 0-4.126 1.847-4.126 4.126v23.748z"></path>
<path fill="#fff" style="fill: var(--color3, #fff)" d="M13.27 14.155v-4.532h3.989c0.38 0 0.746 0.032 1.099 0.095s0.665 0.176 0.936 0.339c0.271 0.163 0.488 0.389 0.651 0.678s0.244 0.66 0.244 1.113c0 0.814-0.244 1.402-0.733 1.764s-1.113 0.543-1.872 0.543h-4.315zM9.009 6.313v19.375h9.389c0.868 0 1.714-0.109 2.537-0.326s1.556-0.552 2.198-1.004c0.642-0.452 1.153-1.036 1.533-1.75s0.57-1.56 0.57-2.537c0-1.212-0.294-2.248-0.882-3.107s-1.479-1.461-2.673-1.805c0.868-0.416 1.524-0.95 1.967-1.601s0.665-1.465 0.665-2.442c0-0.905-0.149-1.664-0.448-2.279s-0.719-1.108-1.262-1.479c-0.543-0.371-1.194-0.638-1.954-0.8s-1.601-0.244-2.524-0.244h-9.118zM13.27 22.377v-5.319h4.64c0.923 0 1.664 0.213 2.225 0.638s0.841 1.135 0.841 2.13c0 0.507-0.086 0.923-0.258 1.248s-0.402 0.583-0.692 0.773c-0.289 0.19-0.624 0.326-1.004 0.407s-0.778 0.122-1.194 0.122h-4.559z"></path>
</symbol>
<symbol id="icon-css-3" viewBox="0 0 32 32">
<path fill="#1172b8" style="fill: var(--color11, #1172b8)" d="M6 28l-2-25h24l-2 25-10 3-10-3z"></path>
<path fill="#3ad" style="fill: var(--color12, #3ad)" d="M26 5h-10v24.5l8-2.5 2-22z"></path>
<path fill="#fff" style="fill: var(--color3, #fff)" d="M19.5 17.5h-10l-0.5-3.5 8-2.5h-8l-0.5-3h15.5l-0.5 3.5-6.5 2.5h6l-1 9.5-6 2-6-2-0.5-5h3l0.5 2.5 3 1 3-1 0.5-4z"></path>
</symbol>
<symbol id="icon-git" viewBox="0 0 32 32">
<path fill="#ee513b" style="fill: var(--color13, #ee513b)" d="M2.585 17.413c-0.78-0.78-0.78-2.046 0-2.826l12.001-12.001c0.78-0.78 2.046-0.78 2.826 0l12.001 12.001c0.78 0.78 0.78 2.046 0 2.826l-12.001 12.001c-0.78 0.78-2.046 0.78-2.826 0l-12.001-12.001z"></path>
<path fill="#fff" style="fill: var(--color3, #fff)" d="M12.149 5.062l-1.215 1.215 3.139 3.139c-0.127 0.272-0.198 0.576-0.198 0.897 0 0.91 0.572 1.686 1.375 1.989v7.679c-0.803 0.303-1.375 1.079-1.375 1.989 0 1.174 0.951 2.125 2.125 2.125s2.125-0.951 2.125-2.125c0-0.825-0.47-1.54-1.156-1.892v-7.765l3 3.001c-0.121 0.267-0.188 0.563-0.188 0.875 0 1.174 0.951 2.125 2.125 2.125s2.125-0.951 2.125-2.125c0-1.174-0.951-2.125-2.125-2.125-0.228 0-0.448 0.036-0.654 0.102l-3.223-3.223c0.062-0.199 0.095-0.411 0.095-0.63 0-1.174-0.951-2.125-2.125-2.125-0.219 0-0.431 0.033-0.63 0.095l-3.221-3.221z"></path>
</symbol>
<symbol id="icon-github" viewBox="0 0 32 32">
<path fill="#000" style="fill: var(--color1, #000)" d="M6.575 0.438h18.849c3.389 0 6.137 2.748 6.137 6.137v18.849c0 3.389-2.748 6.137-6.137 6.137h-18.849c-3.389 0-6.137-2.748-6.137-6.137v-18.849c0-3.389 2.748-6.137 6.137-6.137z"></path>
<path fill="#fff" style="fill: var(--color3, #fff)" d="M26.436 10.27c-1.057-1.811-2.49-3.244-4.301-4.301s-3.788-1.585-5.932-1.585c-2.144 0-4.122 0.528-5.932 1.585s-3.244 2.49-4.301 4.301c-1.057 1.811-1.585 3.788-1.585 5.932 0 2.575 0.751 4.891 2.254 6.948s3.445 3.48 5.825 4.27c0.277 0.051 0.482 0.015 0.616-0.108s0.2-0.277 0.2-0.462c0-0.031-0.003-0.308-0.008-0.831s-0.008-0.98-0.008-1.369l-0.354 0.061c-0.226 0.041-0.51 0.059-0.854 0.054s-0.7-0.041-1.069-0.108c-0.369-0.066-0.713-0.22-1.031-0.461s-0.544-0.557-0.677-0.946l-0.154-0.354c-0.103-0.236-0.264-0.498-0.485-0.785s-0.444-0.482-0.669-0.585l-0.108-0.077c-0.072-0.051-0.138-0.113-0.2-0.185s-0.108-0.144-0.138-0.215c-0.031-0.072-0.005-0.131 0.077-0.177s0.231-0.069 0.446-0.069l0.308 0.046c0.205 0.041 0.459 0.164 0.762 0.369s0.551 0.472 0.746 0.8c0.236 0.421 0.521 0.741 0.854 0.962s0.669 0.331 1.008 0.331 0.631-0.026 0.877-0.077c0.246-0.051 0.477-0.128 0.692-0.231 0.092-0.688 0.344-1.216 0.754-1.585-0.585-0.061-1.11-0.154-1.577-0.277s-0.949-0.323-1.446-0.6c-0.498-0.277-0.911-0.621-1.239-1.031s-0.598-0.949-0.808-1.616c-0.21-0.667-0.315-1.436-0.315-2.308 0-1.242 0.405-2.298 1.216-3.17-0.38-0.933-0.344-1.98 0.108-3.139 0.298-0.092 0.739-0.023 1.323 0.208s1.013 0.429 1.285 0.593c0.272 0.164 0.49 0.303 0.654 0.415 0.954-0.267 1.939-0.4 2.955-0.4s2.001 0.133 2.955 0.4l0.585-0.369c0.4-0.246 0.872-0.472 1.416-0.677s0.96-0.262 1.247-0.169c0.462 1.159 0.503 2.206 0.123 3.139 0.81 0.872 1.216 1.929 1.216 3.17 0 0.872-0.106 1.644-0.315 2.316s-0.482 1.21-0.815 1.616c-0.334 0.405-0.749 0.747-1.247 1.023s-0.98 0.477-1.447 0.6c-0.467 0.123-0.993 0.216-1.577 0.277 0.533 0.462 0.8 1.19 0.8 2.185v3.247c0 0.184 0.064 0.338 0.193 0.462s0.331 0.159 0.608 0.108c2.38-0.79 4.322-2.213 5.825-4.27s2.254-4.373 2.254-6.948c-0.001-2.144-0.529-4.121-1.585-5.932z"></path>
</symbol>
<symbol id="icon-html-5" viewBox="0 0 32 32">
<path fill="#e44d26" style="fill: var(--color14, #e44d26)" d="M6 28l-2-25h24l-2 25-10 3-10-3z"></path>
<path fill="#f16529" style="fill: var(--color15, #f16529)" d="M26 5h-10v24.5l8-2.5 2-22z"></path>
<path fill="#fff" style="fill: var(--color3, #fff)" d="M9.5 17.5l-1-9.5h15.5l-0.5 3h-12l0.5 3.5h11l-1 9.5-6 2-6-2-0.5-5h3l0.5 2.5 3 1 3-1 0.5-4h-10z"></path>
</symbol>
<symbol id="icon-js" viewBox="0 0 32 32">
<path fill="#ffca28" style="fill: var(--color16, #ffca28)" d="M2 2h28v28h-28v-28z"></path>
<path fill="#3e3e3e" style="fill: var(--color17, #3e3e3e)" d="M19 25.288l2.061-1.364c0.162 0.508 1.185 1.713 2.477 1.713s1.892-0.706 1.892-1.174c0-1.275-1.32-1.725-1.953-1.941-0.103-0.035-0.188-0.064-0.247-0.090-0.030-0.013-0.075-0.030-0.133-0.052-0.705-0.269-3.306-1.263-3.306-4.143 0-3.172 3.061-3.537 3.754-3.537 0.453 0 2.631 0.056 3.715 2.094l-2 1.396c-0.438-0.888-1.167-1.182-1.615-1.182-1.108 0-1.338 0.812-1.338 1.182 0 1.037 1.204 1.502 2.22 1.895 0.266 0.103 0.519 0.2 0.734 0.302 1.108 0.523 2.739 1.38 2.739 4.076 0 1.351-1.133 3.537-3.985 3.537-3.831 0-4.846-2.3-5.015-2.712z"></path>
<path fill="#3e3e3e" style="fill: var(--color17, #3e3e3e)" d="M9 25.559l2.149-1.363c0.168 0.507 0.823 1.443 1.772 1.443s1.435-0.975 1.435-1.443v-9.195h2.643v9.195c0.043 1.268-0.661 3.805-3.765 3.805-2.854 0-4.041-1.696-4.233-2.442z"></path>
</symbol>
<symbol id="icon-next-js" viewBox="0 0 32 32">
<path d="M23.751 30.003c-0.119 0.063-0.112 0.088 0.007 0.028 0.036-0.016 0.067-0.037 0.093-0.063v0c0-0.021-0.003-0.019-0.1 0.035zM23.988 29.877c-0.056 0.044-0.056 0.047 0.012 0.012 0.037-0.019 0.069-0.040 0.069-0.047 0-0.025-0.016-0.019-0.081 0.035zM24.144 29.783c-0.056 0.044-0.056 0.047 0.012 0.012 0.037-0.019 0.069-0.040 0.069-0.047 0-0.025-0.016-0.019-0.081 0.035zM24.3 29.689c-0.056 0.044-0.056 0.047 0.012 0.012 0.037-0.019 0.069-0.040 0.069-0.047 0-0.025-0.016-0.019-0.081 0.035zM24.516 29.549c-0.109 0.069-0.144 0.116-0.047 0.063 0.069-0.040 0.181-0.125 0.163-0.128-0.044 0.019-0.082 0.041-0.118 0.067l0.002-0.001zM14.952 0.008c-0.069 0.007-0.288 0.028-0.485 0.044-4.544 0.409-8.801 2.861-11.497 6.631-1.43 1.965-2.431 4.334-2.813 6.904l-0.011 0.087c-0.128 0.879-0.144 1.139-0.144 2.331s0.016 1.451 0.144 2.331c0.869 6.008 5.145 11.056 10.944 12.927 1.039 0.335 2.133 0.563 3.377 0.7 0.485 0.053 2.58 0.053 3.065 0 2.148-0.237 3.969-0.769 5.764-1.685 0.275-0.141 0.328-0.179 0.291-0.209-0.312-0.379-1.167-1.516-2.015-2.659l-0.591-0.834-2.559-3.456-3.205-4.744c-2.045-3.101-3.108-4.645-4.18-6.183l0.952 1.441c-0.012-0.003-0.025 2.105-0.031 4.679-0.009 4.507-0.012 4.688-0.069 4.795-0.056 0.125-0.152 0.224-0.271 0.283l-0.003 0.001c-0.1 0.051-0.188 0.060-0.66 0.060h-0.541l-0.144-0.091c-0.089-0.057-0.16-0.134-0.208-0.225l-0.002-0.003-0.065-0.141 0.007-6.271 0.009-6.273 0.097-0.121c0.065-0.076 0.142-0.14 0.228-0.188l0.004-0.002c0.128-0.063 0.179-0.069 0.72-0.069 0.639 0 0.744 0.025 0.911 0.207-0.11-0.286 1.162 1.609 2.423 3.511l1.437 2.303c2.077 3.149 4.916 7.449 6.312 9.561l2.533 3.837 0.128-0.084c1.249-0.838 2.329-1.789 3.27-2.865l0.016-0.019c1.947-2.219 3.292-5.011 3.755-8.091l0.011-0.088c0.128-0.879 0.144-1.139 0.144-2.331s-0.016-1.451-0.144-2.331c-0.869-6.008-5.145-11.056-10.944-12.927-0.962-0.319-2.092-0.565-3.257-0.691l-0.074-0.006c-0.3-0.031-2.368-0.065-2.629-0.044zM21.501 9.685c0.15 0.076 0.263 0.207 0.315 0.365l0.001 0.004c0.025 0.081 0.031 1.82 0.025 5.739l-0.009 5.624-0.992-1.52-0.995-1.52v-4.088c0-2.643 0.012-4.128 0.031-4.2 0.048-0.171 0.159-0.31 0.306-0.393l0.003-0.002c0.128-0.065 0.175-0.072 0.667-0.072 0.463 0 0.544 0.007 0.648 0.063z"></path>
</symbol>
<symbol id="icon-react" viewBox="0 0 32 32">
<path fill="#00d8ff" style="fill: var(--color18, #00d8ff)" d="M26.31 10.978c-0.332-0.114-0.676-0.222-1.030-0.325 0.058-0.238 0.112-0.472 0.159-0.703 0.78-3.785 0.27-6.834-1.471-7.838-1.669-0.963-4.399 0.041-7.157 2.441-0.265 0.231-0.531 0.475-0.797 0.731-0.177-0.169-0.354-0.333-0.53-0.49-2.89-2.566-5.786-3.647-7.526-2.64-1.668 0.965-2.162 3.832-1.46 7.419 0.068 0.347 0.147 0.7 0.237 1.060-0.41 0.116-0.806 0.24-1.184 0.372-3.388 1.181-5.552 3.032-5.552 4.953 0 1.983 2.323 3.972 5.851 5.178 0.278 0.095 0.567 0.185 0.865 0.271-0.097 0.389-0.181 0.77-0.251 1.142-0.669 3.525-0.147 6.324 1.517 7.283 1.718 0.991 4.601-0.028 7.409-2.482 0.222-0.194 0.445-0.4 0.668-0.615 0.289 0.278 0.578 0.542 0.865 0.789 2.72 2.34 5.406 3.285 7.067 2.323 1.716-0.994 2.274-4 1.55-7.659-0.055-0.279-0.12-0.565-0.192-0.855 0.203-0.060 0.401-0.122 0.595-0.186 3.668-1.215 6.055-3.18 6.055-5.19 0-1.927-2.233-3.791-5.69-4.981v0zM25.515 19.851c-0.175 0.058-0.355 0.114-0.537 0.168-0.405-1.282-0.952-2.645-1.62-4.054 0.638-1.375 1.164-2.721 1.557-3.995 0.327 0.095 0.645 0.195 0.951 0.3 2.961 1.019 4.768 2.527 4.768 3.688 0 1.237-1.951 2.843-5.118 3.892v0zM24.2 22.455c0.32 1.618 0.366 3.080 0.154 4.223-0.191 1.027-0.574 1.712-1.048 1.987-1.008 0.584-3.165-0.175-5.491-2.176-0.267-0.229-0.535-0.474-0.805-0.734 0.902-0.986 1.803-2.133 2.682-3.406 1.547-0.137 3.009-0.362 4.334-0.668 0.065 0.263 0.123 0.522 0.173 0.774v0zM10.91 28.564c-0.985 0.348-1.77 0.358-2.244 0.084-1.009-0.582-1.429-2.829-0.857-5.844 0.066-0.345 0.144-0.7 0.234-1.062 1.311 0.29 2.762 0.498 4.312 0.624 0.885 1.246 1.813 2.391 2.747 3.394-0.204 0.197-0.408 0.385-0.61 0.561-1.242 1.085-2.486 1.855-3.582 2.242v0zM6.294 19.843c-1.56-0.533-2.849-1.226-3.732-1.983-0.794-0.68-1.194-1.355-1.194-1.902 0-1.165 1.737-2.651 4.635-3.662 0.352-0.123 0.72-0.238 1.101-0.347 0.4 1.303 0.926 2.664 1.56 4.041-0.642 1.398-1.175 2.781-1.579 4.099-0.272-0.078-0.536-0.161-0.79-0.247v0zM7.841 9.311c-0.601-3.073-0.202-5.392 0.803-5.974 1.071-0.62 3.438 0.264 5.933 2.479 0.159 0.142 0.32 0.29 0.48 0.443-0.93 0.998-1.848 2.135-2.726 3.373-1.505 0.139-2.946 0.364-4.27 0.664-0.083-0.335-0.157-0.664-0.22-0.986v0zM21.644 12.719c-0.317-0.547-0.642-1.081-0.973-1.6 1.021 0.129 1.999 0.3 2.918 0.51-0.276 0.884-0.62 1.808-1.024 2.755-0.29-0.551-0.597-1.107-0.921-1.665v0zM16.015 7.237c0.631 0.683 1.262 1.446 1.883 2.273-0.626-0.030-1.259-0.045-1.898-0.045-0.633 0-1.262 0.015-1.884 0.044 0.622-0.82 1.259-1.581 1.899-2.272v0zM10.35 12.729c-0.316 0.548-0.618 1.101-0.903 1.655-0.398-0.944-0.739-1.873-1.017-2.769 0.913-0.204 1.887-0.371 2.901-0.498-0.336 0.524-0.664 1.062-0.981 1.612v0zM11.36 20.898c-1.048-0.117-2.036-0.275-2.949-0.474 0.283-0.912 0.631-1.861 1.037-2.825 0.286 0.553 0.589 1.106 0.907 1.656v0c0.324 0.56 0.66 1.108 1.005 1.643v0zM16.053 24.777c-0.648-0.699-1.294-1.472-1.925-2.304 0.613 0.024 1.237 0.036 1.872 0.036 0.652 0 1.297-0.015 1.932-0.043-0.623 0.847-1.252 1.621-1.879 2.311v0zM22.578 17.55c0.428 0.975 0.788 1.918 1.075 2.815-0.928 0.212-1.93 0.382-2.985 0.509 0.332-0.526 0.66-1.070 0.982-1.628 0.326-0.565 0.636-1.131 0.928-1.695v0zM20.466 18.562c-0.5 0.867-1.014 1.695-1.535 2.477-0.95 0.068-1.931 0.103-2.93 0.103-0.996 0-1.964-0.031-2.897-0.091-0.542-0.792-1.067-1.622-1.564-2.481v0c-0.496-0.856-0.952-1.72-1.365-2.578 0.413-0.861 0.868-1.725 1.361-2.58v0c0.494-0.857 1.014-1.683 1.552-2.47 0.952-0.072 1.928-0.109 2.914-0.109v0c0.991 0 1.968 0.038 2.919 0.11 0.529 0.781 1.046 1.605 1.542 2.462 0.502 0.867 0.963 1.725 1.38 2.567-0.416 0.857-0.875 1.724-1.375 2.59v0zM23.286 3.297c1.072 0.618 1.488 3.11 0.815 6.378-0.043 0.209-0.091 0.421-0.144 0.636-1.328-0.306-2.769-0.534-4.279-0.676-0.879-1.252-1.79-2.39-2.705-3.376 0.246-0.237 0.491-0.462 0.736-0.675 2.362-2.056 4.57-2.868 5.576-2.288v0zM16 13.101c1.578 0 2.858 1.279 2.858 2.857s-1.279 2.858-2.858 2.858-2.857-1.279-2.857-2.857c0-1.578 1.279-2.857 2.857-2.857v0z"></path>
</symbol>
<symbol id="icon-react-query" viewBox="0 0 36 32">
<path fill="#00435b" style="fill: var(--color19, #00435b)" d="M21.98 19.824l-0.683 1.186c-0.206 0.357-0.587 0.578-0.999 0.578h-5.234c-0.412 0-0.793-0.22-0.999-0.578l-0.683-1.186h8.599zM23.892 16.503l-1.205 2.092h-10.015l-1.205-2.092h12.424zM22.732 13.256l1.162 2.018h-12.428l1.162-2.018h10.103zM20.297 10.186c0.412 0 0.793 0.22 0.999 0.578l0.727 1.263h-8.687l0.727-1.263c0.206-0.357 0.587-0.578 0.999-0.578h5.234z"></path>
<path fill="#002b3b" style="fill: var(--color20, #002b3b)" d="M7.447 9.635c-0.58-2.811-0.704-4.967-0.329-6.533 0.223-0.931 0.63-1.691 1.25-2.239 0.654-0.579 1.481-0.863 2.41-0.863 1.533 0 3.145 0.699 4.867 2.027 0.703 0.542 1.432 1.195 2.189 1.959 0.060-0.078 0.128-0.151 0.204-0.218 2.141-1.908 3.943-3.093 5.485-3.55 0.917-0.272 1.777-0.298 2.561-0.034 0.827 0.278 1.486 0.854 1.951 1.66 0.767 1.33 0.97 3.078 0.684 5.236-0.117 0.88-0.316 1.838-0.598 2.876 0.106 0.013 0.213 0.036 0.318 0.071 2.716 0.9 4.639 1.868 5.804 2.974 0.693 0.658 1.145 1.391 1.309 2.202 0.173 0.856 0.004 1.715-0.46 2.52-0.766 1.328-2.175 2.376-4.181 3.206-0.806 0.333-1.717 0.635-2.736 0.906 0.046 0.105 0.083 0.216 0.107 0.333 0.58 2.811 0.704 4.967 0.329 6.533-0.223 0.931-0.63 1.691-1.25 2.239-0.654 0.579-1.481 0.863-2.41 0.863-1.533 0-3.145-0.699-4.867-2.027-0.71-0.547-1.447-1.209-2.213-1.984-0.079 0.123-0.176 0.238-0.29 0.34-2.141 1.908-3.943 3.093-5.485 3.55-0.917 0.272-1.777 0.298-2.561 0.034-0.827-0.278-1.486-0.854-1.951-1.66-0.767-1.33-0.97-3.078-0.684-5.236 0.121-0.912 0.331-1.907 0.629-2.989-0.117-0.012-0.233-0.036-0.349-0.075-2.716-0.9-4.639-1.868-5.804-2.974-0.693-0.658-1.145-1.391-1.309-2.202-0.173-0.856-0.004-1.715 0.46-2.52 0.766-1.328 2.175-2.376 4.181-3.206 0.83-0.343 1.772-0.653 2.827-0.931-0.038-0.092-0.067-0.189-0.088-0.29z"></path>
<path fill="#ff4154" style="fill: var(--color21, #ff4154)" d="M26.386 22.446c0.27-0.048 0.529 0.125 0.589 0.391l0.003 0.016 0.029 0.149c0.934 4.908 0.276 7.362-1.973 7.362-2.2 0-5.001-2.094-8.402-6.282-0.075-0.093-0.116-0.208-0.115-0.328 0.002-0.278 0.225-0.502 0.501-0.508h0.016l0.179 0.001c1.431 0.008 2.823-0.042 4.174-0.15 1.596-0.127 3.262-0.344 4.998-0.652zM10.942 18.736l0.009 0.015 0.090 0.157c0.72 1.252 1.471 2.441 2.251 3.565 0.919 1.325 1.953 2.666 3.101 4.023 0.178 0.21 0.157 0.522-0.043 0.707l-0.013 0.012-0.116 0.099c-3.799 3.255-6.268 3.905-7.408 1.95-1.115-1.914-0.711-5.395 1.213-10.441 0.042-0.111 0.122-0.204 0.225-0.263 0.241-0.137 0.546-0.058 0.691 0.177zM28.314 11.494l0.016 0.005 0.143 0.049c4.689 1.631 6.471 3.424 5.345 5.378-1.101 1.911-4.303 3.303-9.606 4.174-0.118 0.019-0.24-0.003-0.343-0.064-0.244-0.143-0.326-0.458-0.182-0.701 0.759-1.292 1.443-2.577 2.052-3.856 0.69-1.45 1.338-3.007 1.943-4.671 0.092-0.252 0.361-0.389 0.617-0.319l0.016 0.005zM11.749 10.673c0.244 0.143 0.325 0.458 0.182 0.701-0.759 1.292-1.443 2.577-2.052 3.856-0.69 1.45-1.338 3.007-1.943 4.671-0.094 0.257-0.372 0.395-0.632 0.315l-0.016-0.005-0.143-0.049c-4.689-1.631-6.471-3.424-5.345-5.378 1.101-1.911 4.303-3.303 9.606-4.174 0.118-0.019 0.24 0.003 0.343 0.064zM26.804 2.638c1.115 1.914 0.711 5.395-1.213 10.441-0.042 0.111-0.122 0.204-0.225 0.263-0.241 0.137-0.546 0.058-0.691-0.177l-0.009-0.015-0.090-0.157c-0.72-1.252-1.471-2.441-2.251-3.565-0.919-1.325-1.953-2.666-3.101-4.023-0.178-0.21-0.157-0.522 0.043-0.707l0.013-0.012 0.116-0.099c3.799-3.255 6.268-3.905 7.408-1.95zM10.775 1.473c2.2 0 5.001 2.094 8.402 6.282 0.075 0.093 0.116 0.208 0.115 0.328-0.002 0.278-0.225 0.502-0.501 0.508h-0.016l-0.179-0.001c-1.431-0.008-2.823 0.042-4.174 0.15-1.595 0.127-3.262 0.344-4.998 0.652-0.27 0.048-0.529-0.125-0.589-0.391l-0.003-0.016-0.029-0.149c-0.934-4.908-0.276-7.362 1.973-7.362z"></path>
<path fill="#ffd94c" style="fill: var(--color22, #ffd94c)" d="M15.484 10.25h4.393c0.642 0 1.236 0.344 1.556 0.901l2.206 3.844c0.317 0.553 0.317 1.233 0 1.786l-2.206 3.844c-0.32 0.557-0.913 0.901-1.556 0.901h-4.393c-0.642 0-1.236-0.344-1.556-0.901l-2.206-3.844c-0.317-0.553-0.317-1.233 0-1.786l2.206-3.844c0.32-0.557 0.913-0.901 1.556-0.901zM19.208 11.41c0.643 0 1.236 0.344 1.556 0.902l1.538 2.684c0.317 0.553 0.317 1.232 0 1.784l-1.538 2.684c-0.32 0.558-0.913 0.902-1.556 0.902h-3.054c-0.643 0-1.236-0.344-1.556-0.902l-1.538-2.684c-0.317-0.552-0.317-1.232 0-1.784l1.538-2.684c0.32-0.558 0.913-0.902 1.556-0.902h3.054zM18.486 12.679h-1.611c-0.642 0-1.235 0.343-1.555 0.9v0l-0.813 1.415c-0.318 0.553-0.318 1.234 0 1.787v0l0.813 1.415c0.32 0.557 0.913 0.9 1.555 0.9v0h1.611c0.642 0 1.235-0.343 1.555-0.9v0l0.813-1.415c0.318-0.553 0.318-1.234 0-1.787v0l-0.813-1.415c-0.32-0.557-0.913-0.9-1.555-0.9v0zM17.791 13.893c0.642 0 1.234 0.343 1.555 0.899l0.115 0.2c0.319 0.554 0.319 1.236 0 1.79l-0.115 0.2c-0.32 0.556-0.913 0.899-1.555 0.899h-0.221c-0.642 0-1.234-0.343-1.555-0.899l-0.115-0.2c-0.319-0.554-0.319-1.236 0-1.79l0.115-0.2c0.32-0.556 0.913-0.899 1.555-0.899h0.221zM17.681 15.089c-0.286 0-0.549 0.152-0.692 0.399s-0.143 0.551 0 0.798c0.143 0.247 0.406 0.399 0.691 0.399v0c0.286 0 0.549-0.152 0.692-0.399s0.143-0.551 0-0.798c-0.143-0.247-0.406-0.399-0.691-0.399v0zM11.21 15.887h1.436z"></path>
</symbol>
<symbol id="icon-redux" viewBox="0 0 32 32">
<path fill="#764abc" style="fill: var(--color23, #764abc)" d="M21.787 21.556c1.107-0.113 1.947-1.051 1.909-2.177s-0.993-2.027-2.138-2.027h-0.076c-1.184 0.038-2.1 1.013-2.061 2.177 0.038 0.563 0.267 1.051 0.611 1.389-1.298 2.515-3.283 4.354-6.261 5.893-2.023 1.051-4.123 1.426-6.223 1.164-1.718-0.225-3.054-0.976-3.894-2.215-1.222-1.839-1.336-3.828-0.305-5.818 0.725-1.426 1.871-2.477 2.596-3.003-0.153-0.488-0.382-1.314-0.496-1.914-5.536 3.941-4.963 9.271-3.283 11.785 1.26 1.877 3.818 3.040 6.643 3.040 0.763 0 1.527-0.075 2.291-0.263 4.887-0.938 8.59-3.791 10.689-8.032zM28.506 16.902c-2.901-3.341-7.177-5.18-12.064-5.18h-0.611c-0.344-0.676-1.069-1.126-1.871-1.126h-0.076c-1.183 0.038-2.099 1.013-2.061 2.177 0.038 1.126 0.992 2.027 2.138 2.027h0.076c0.84-0.037 1.565-0.563 1.871-1.276h0.687c2.901 0 5.65 0.826 8.132 2.44 1.909 1.239 3.283 2.853 4.047 4.804 0.649 1.576 0.611 3.115-0.076 4.429-1.069 1.989-2.863 3.078-5.23 3.078-1.527 0-2.978-0.45-3.741-0.788-0.42 0.375-1.183 0.976-1.718 1.351 1.642 0.751 3.321 1.163 4.925 1.163 3.665 0 6.375-1.989 7.406-3.979 1.107-2.177 1.031-5.93-1.832-9.121zM9.112 22.194c0.038 1.126 0.993 2.027 2.138 2.027h0.076c1.183-0.037 2.1-1.013 2.061-2.177-0.038-1.126-0.993-2.027-2.138-2.027h-0.076c-0.076 0-0.191 0-0.267 0.037-1.565-2.552-2.214-5.33-1.985-8.332 0.153-2.252 0.916-4.204 2.252-5.818 1.107-1.389 3.245-2.064 4.696-2.102 4.047-0.075 5.764 4.879 5.879 6.869 0.496 0.113 1.336 0.375 1.909 0.563-0.458-6.080-4.276-9.233-7.941-9.233-3.436 0-6.605 2.44-7.864 6.043-1.756 4.804-0.611 9.421 1.527 13.062-0.191 0.263-0.305 0.676-0.267 1.088v0z"></path>
</symbol>
<symbol id="icon-sass" viewBox="0 0 32 32">
<path fill="#cd6799" style="fill: var(--color24, #cd6799)" d="M27.535 17.814c-1.113 0.006-2.081 0.274-2.891 0.67-0.297-0.589-0.595-1.113-0.647-1.498-0.058-0.449-0.128-0.723-0.058-1.259s0.385-1.3 0.379-1.358c-0.006-0.058-0.070-0.332-0.711-0.338s-1.195 0.122-1.259 0.291c-0.064 0.169-0.187 0.554-0.268 0.95-0.111 0.583-1.282 2.664-1.953 3.754-0.216-0.425-0.402-0.799-0.443-1.096-0.058-0.449-0.128-0.723-0.058-1.259s0.385-1.3 0.379-1.358c-0.006-0.058-0.070-0.332-0.711-0.338s-1.195 0.122-1.259 0.291c-0.064 0.169-0.134 0.565-0.268 0.95s-1.69 3.859-2.098 4.756c-0.21 0.46-0.391 0.828-0.519 1.078v0c0 0-0.006 0.017-0.023 0.047-0.111 0.216-0.175 0.332-0.175 0.332s0 0 0 0.006c-0.087 0.157-0.181 0.303-0.227 0.303-0.035 0-0.099-0.42 0.012-0.991 0.233-1.207 0.787-3.083 0.781-3.148 0-0.035 0.105-0.361-0.361-0.53-0.455-0.169-0.618 0.111-0.659 0.111s-0.070 0.099-0.070 0.099c0 0 0.507-2.11-0.968-2.11-0.921 0-2.192 1.008-2.821 1.918-0.396 0.216-1.242 0.676-2.145 1.172-0.344 0.192-0.699 0.385-1.032 0.565-0.023-0.023-0.047-0.052-0.070-0.076-1.784-1.906-5.083-3.252-4.943-5.811 0.052-0.933 0.373-3.381 6.336-6.353 4.908-2.419 8.813-1.749 9.489-0.262 0.968 2.122-2.093 6.062-7.164 6.633-1.935 0.216-2.949-0.53-3.206-0.81-0.268-0.291-0.309-0.309-0.408-0.251-0.163 0.087-0.058 0.35 0 0.501 0.152 0.396 0.775 1.096 1.83 1.44 0.933 0.303 3.2 0.472 5.945-0.589 3.072-1.189 5.473-4.494 4.768-7.263-0.705-2.809-5.368-3.736-9.781-2.168-2.623 0.933-5.467 2.401-7.513 4.313-2.431 2.273-2.815 4.249-2.658 5.077 0.565 2.938 4.616 4.85 6.237 6.266-0.082 0.047-0.157 0.087-0.221 0.122-0.81 0.402-3.899 2.017-4.669 3.725-0.874 1.935 0.14 3.322 0.81 3.509 2.081 0.577 4.22-0.46 5.368-2.174s1.008-3.94 0.478-4.96c-0.006-0.012-0.012-0.023-0.023-0.035 0.21-0.122 0.425-0.251 0.635-0.373 0.414-0.245 0.822-0.472 1.172-0.659-0.198 0.542-0.344 1.189-0.414 2.122-0.087 1.096 0.361 2.518 0.95 3.078 0.262 0.245 0.571 0.251 0.769 0.251 0.688 0 0.997-0.571 1.341-1.247 0.42-0.828 0.799-1.789 0.799-1.789s-0.472 2.6 0.81 2.6c0.466 0 0.938-0.606 1.148-0.915v0.006c0 0 0.012-0.017 0.035-0.058 0.047-0.076 0.076-0.122 0.076-0.122v-0.012c0.187-0.326 0.606-1.067 1.23-2.297 0.804-1.585 1.58-3.567 1.58-3.567s0.070 0.484 0.309 1.288c0.14 0.472 0.431 0.991 0.664 1.492-0.187 0.262-0.303 0.408-0.303 0.408s0 0 0.006 0.006c-0.152 0.198-0.315 0.414-0.495 0.624-0.635 0.758-1.393 1.626-1.498 1.877-0.122 0.297-0.093 0.513 0.14 0.688 0.169 0.128 0.472 0.146 0.781 0.128 0.571-0.041 0.973-0.181 1.172-0.268 0.309-0.111 0.67-0.28 1.008-0.53 0.624-0.46 1.003-1.119 0.968-1.988-0.017-0.478-0.175-0.956-0.367-1.405 0.058-0.082 0.111-0.163 0.169-0.245 0.985-1.44 1.749-3.019 1.749-3.019s0.070 0.484 0.309 1.288c0.117 0.408 0.356 0.851 0.565 1.282-0.927 0.752-1.498 1.626-1.702 2.197-0.367 1.061-0.082 1.539 0.46 1.65 0.245 0.052 0.595-0.064 0.851-0.175 0.326-0.105 0.711-0.286 1.078-0.554 0.624-0.46 1.224-1.102 1.189-1.97-0.017-0.396-0.122-0.787-0.268-1.166 0.787-0.326 1.801-0.507 3.095-0.356 2.774 0.326 3.322 2.058 3.218 2.786s-0.688 1.125-0.88 1.247c-0.192 0.122-0.256 0.163-0.239 0.251 0.023 0.128 0.117 0.122 0.28 0.099 0.227-0.041 1.457-0.589 1.51-1.929 0.087-1.714-1.545-3.585-4.43-3.567v0zM6.132 25.030c-0.921 1.003-2.203 1.381-2.757 1.061-0.595-0.344-0.361-1.824 0.769-2.885 0.688-0.647 1.574-1.247 2.162-1.615 0.134-0.082 0.332-0.198 0.571-0.344 0.041-0.023 0.064-0.035 0.064-0.035v0c0.047-0.029 0.093-0.058 0.14-0.087 0.414 1.515 0.018 2.85-0.95 3.905v0zM12.835 20.472c-0.321 0.781-0.991 2.78-1.399 2.67-0.35-0.093-0.565-1.609-0.070-3.107 0.251-0.752 0.781-1.65 1.090-1.999 0.501-0.56 1.055-0.746 1.189-0.519 0.169 0.297-0.612 2.466-0.81 2.955v0zM18.366 23.118c-0.134 0.070-0.262 0.117-0.321 0.082-0.041-0.023 0.058-0.117 0.058-0.117s0.694-0.746 0.968-1.084c0.157-0.198 0.344-0.431 0.542-0.694v0.076c0 0.892-0.863 1.492-1.247 1.737v0zM22.633 22.145c-0.099-0.070-0.082-0.303 0.251-1.032 0.128-0.286 0.431-0.764 0.95-1.224 0.058 0.187 0.099 0.367 0.093 0.536-0.006 1.125-0.81 1.545-1.294 1.72v0z"></path>
</symbol>
<symbol id="icon-tailwind" viewBox="0 0 32 32">
<path fill="#44a8b3" style="fill: var(--color25, #44a8b3)" d="M9 13.7q1.4-5.6 7-5.6c5.6 0 6.3 4.2 9.1 4.9q2.8 0.7 4.9-2.1-1.4 5.6-7 5.6c-5.6 0-6.3-4.2-9.1-4.9q-2.8-0.7-4.9 2.1zM2 22.1q1.4-5.6 7-5.6c5.6 0 6.3 4.2 9.1 4.9q2.8 0.7 4.9-2.1-1.4 5.6-7 5.6c-5.6 0-6.3-4.2-9.1-4.9q-2.8-0.7-4.9 2.1z"></path>
</symbol>
<symbol id="icon-typescript" viewBox="0 0 32 32">
<path fill="#007acc" style="fill: var(--color26, #007acc)" d="M0 16v16h32v-32h-32zM25.788 14.725c0.813 0.203 1.432 0.564 2.001 1.153 0.295 0.315 0.732 0.888 0.767 1.027 0.011 0.040-1.381 0.973-2.224 1.497-0.031 0.020-0.153-0.112-0.289-0.315-0.413-0.6-0.844-0.859-1.504-0.904-0.971-0.067-1.595 0.441-1.589 1.289-0.001 0.015-0.001 0.032-0.001 0.050 0 0.201 0.051 0.391 0.14 0.557l-0.003-0.006c0.213 0.441 0.611 0.707 1.853 1.244 2.292 0.987 3.272 1.636 3.881 2.56 0.68 1.031 0.833 2.677 0.371 3.901-0.507 1.331-1.767 2.235-3.54 2.533-0.548 0.097-1.848 0.083-2.437-0.024-1.285-0.229-2.504-0.864-3.256-1.697-0.295-0.324-0.869-1.173-0.833-1.233 0.015-0.021 0.147-0.103 0.293-0.188 0.144-0.081 0.681-0.392 1.189-0.687l0.92-0.533 0.193 0.285c0.269 0.411 0.857 0.975 1.213 1.163 1.021 0.539 2.423 0.463 3.113-0.157 0.257-0.217 0.419-0.54 0.419-0.9 0-0.021-0.001-0.042-0.002-0.062v0.003c0-0.371-0.047-0.533-0.24-0.813-0.248-0.355-0.756-0.653-2.199-1.28-1.651-0.711-2.361-1.152-3.012-1.853-0.392-0.445-0.694-0.981-0.871-1.57l-0.008-0.030c-0.121-0.452-0.152-1.585-0.056-2.041 0.34-1.596 1.544-2.707 3.281-3.037 0.564-0.107 1.875-0.067 2.428 0.071zM18.276 16.061l0.011 1.311h-4.167v11.835h-2.947v-11.835h-4.163v-1.285c0-0.712 0.015-1.307 0.035-1.32 0.016-0.021 2.551-0.032 5.623-0.027l5.593 0.016z"></path>
</symbol>
</defs>
</svg>
