<!-- Generated by IcoMoon.io -->
<svg version="1.1" xmlns="http://www.w3.org/2000/svg" width="32" height="32" viewBox="0 0 32 32">
<path fill="#ee513b" d="M2.585 17.413c-0.78-0.78-0.78-2.046 0-2.826l12.001-12.001c0.78-0.78 2.046-0.78 2.826 0l12.001 12.001c0.78 0.78 0.78 2.046 0 2.826l-12.001 12.001c-0.78 0.78-2.046 0.78-2.826 0l-12.001-12.001z"></path>
<path fill="#fff" d="M12.149 5.062l-1.215 1.215 3.139 3.139c-0.127 0.272-0.198 0.576-0.198 0.897 0 0.91 0.572 1.686 1.375 1.989v7.679c-0.803 0.303-1.375 1.079-1.375 1.989 0 1.174 0.951 2.125 2.125 2.125s2.125-0.951 2.125-2.125c0-0.825-0.47-1.54-1.156-1.892v-7.765l3 3.001c-0.121 0.267-0.188 0.563-0.188 0.875 0 1.174 0.951 2.125 2.125 2.125s2.125-0.951 2.125-2.125c0-1.174-0.951-2.125-2.125-2.125-0.228 0-0.448 0.036-0.654 0.102l-3.223-3.223c0.062-0.199 0.095-0.411 0.095-0.63 0-1.174-0.951-2.125-2.125-2.125-0.219 0-0.431 0.033-0.63 0.095l-3.221-3.221z"></path>
</svg>
