<!-- Generated by IcoMoon.io -->
<svg version="1.1" xmlns="http://www.w3.org/2000/svg" width="32" height="32" viewBox="0 0 32 32">
<path fill="#000" d="M6.575 0.438h18.849c3.389 0 6.137 2.748 6.137 6.137v18.849c0 3.389-2.748 6.137-6.137 6.137h-18.849c-3.389 0-6.137-2.748-6.137-6.137v-18.849c0-3.389 2.748-6.137 6.137-6.137z"></path>
<path fill="#fff" d="M26.436 10.27c-1.057-1.811-2.49-3.244-4.301-4.301s-3.788-1.585-5.932-1.585c-2.144 0-4.122 0.528-5.932 1.585s-3.244 2.49-4.301 4.301c-1.057 1.811-1.585 3.788-1.585 5.932 0 2.575 0.751 4.891 2.254 6.948s3.445 3.48 5.825 4.27c0.277 0.051 0.482 0.015 0.616-0.108s0.2-0.277 0.2-0.462c0-0.031-0.003-0.308-0.008-0.831s-0.008-0.98-0.008-1.369l-0.354 0.061c-0.226 0.041-0.51 0.059-0.854 0.054s-0.7-0.041-1.069-0.108c-0.369-0.066-0.713-0.22-1.031-0.461s-0.544-0.557-0.677-0.946l-0.154-0.354c-0.103-0.236-0.264-0.498-0.485-0.785s-0.444-0.482-0.669-0.585l-0.108-0.077c-0.072-0.051-0.138-0.113-0.2-0.185s-0.108-0.144-0.138-0.215c-0.031-0.072-0.005-0.131 0.077-0.177s0.231-0.069 0.446-0.069l0.308 0.046c0.205 0.041 0.459 0.164 0.762 0.369s0.551 0.472 0.746 0.8c0.236 0.421 0.521 0.741 0.854 0.962s0.669 0.331 1.008 0.331 0.631-0.026 0.877-0.077c0.246-0.051 0.477-0.128 0.692-0.231 0.092-0.688 0.344-1.216 0.754-1.585-0.585-0.061-1.11-0.154-1.577-0.277s-0.949-0.323-1.446-0.6c-0.498-0.277-0.911-0.621-1.239-1.031s-0.598-0.949-0.808-1.616c-0.21-0.667-0.315-1.436-0.315-2.308 0-1.242 0.405-2.298 1.216-3.17-0.38-0.933-0.344-1.98 0.108-3.139 0.298-0.092 0.739-0.023 1.323 0.208s1.013 0.429 1.285 0.593c0.272 0.164 0.49 0.303 0.654 0.415 0.954-0.267 1.939-0.4 2.955-0.4s2.001 0.133 2.955 0.4l0.585-0.369c0.4-0.246 0.872-0.472 1.416-0.677s0.96-0.262 1.247-0.169c0.462 1.159 0.503 2.206 0.123 3.139 0.81 0.872 1.216 1.929 1.216 3.17 0 0.872-0.106 1.644-0.315 2.316s-0.482 1.21-0.815 1.616c-0.334 0.405-0.749 0.747-1.247 1.023s-0.98 0.477-1.447 0.6c-0.467 0.123-0.993 0.216-1.577 0.277 0.533 0.462 0.8 1.19 0.8 2.185v3.247c0 0.184 0.064 0.338 0.193 0.462s0.331 0.159 0.608 0.108c2.38-0.79 4.322-2.213 5.825-4.27s2.254-4.373 2.254-6.948c-0.001-2.144-0.529-4.121-1.585-5.932z"></path>
</svg>
