<!-- Generated by IcoMoon.io -->
<svg version="1.1" xmlns="http://www.w3.org/2000/svg" width="32" height="32" viewBox="0 0 32 32">
<path fill="#ffca28" d="M2 2h28v28h-28v-28z"></path>
<path fill="#3e3e3e" d="M19 25.288l2.061-1.364c0.162 0.508 1.185 1.713 2.477 1.713s1.892-0.706 1.892-1.174c0-1.275-1.32-1.725-1.953-1.941-0.103-0.035-0.188-0.064-0.247-0.090-0.030-0.013-0.075-0.030-0.133-0.052-0.705-0.269-3.306-1.263-3.306-4.143 0-3.172 3.061-3.537 3.754-3.537 0.453 0 2.631 0.056 3.715 2.094l-2 1.396c-0.438-0.888-1.167-1.182-1.615-1.182-1.108 0-1.338 0.812-1.338 1.182 0 1.037 1.204 1.502 2.22 1.895 0.266 0.103 0.519 0.2 0.734 0.302 1.108 0.523 2.739 1.38 2.739 4.076 0 1.351-1.133 3.537-3.985 3.537-3.831 0-4.846-2.3-5.015-2.712z"></path>
<path fill="#3e3e3e" d="M9 25.559l2.149-1.363c0.168 0.507 0.823 1.443 1.772 1.443s1.435-0.975 1.435-1.443v-9.195h2.643v9.195c0.043 1.268-0.661 3.805-3.765 3.805-2.854 0-4.041-1.696-4.233-2.442z"></path>
</svg>
