<!-- Generated by IcoMoon.io -->
<svg version="1.1" xmlns="http://www.w3.org/2000/svg" width="21" height="32" viewBox="0 0 21 32">
<path fill="#000" d="M9.768 15.54c2.165-2.063 1.504-4.614-0.456-7.705s-5.908-4.191-6.644-3.49c-0.736 0.702-0.9 5.718 1.061 8.809s3.874 4.449 6.040 2.386z"></path>
<path fill="#000" d="M11.64 15.826c1.602 2.525 3.743 1.602 6.393-0.923s3.75-7.363 3.205-8.221c-0.545-0.859-4.685-0.816-7.335 1.709s-3.865 4.91-2.263 7.435z"></path>
<path fill="#000" d="M10.764 14.436c2.66 0.327 3.705-2.13 4.193-6.102s-1.523-8.169-2.427-8.28-3.944 3.467-4.431 7.438c-0.488 3.972 0.006 6.618 2.665 6.944z"></path>
<path fill="#000" d="M10.095 32c5.576 0 10.098-1.62 10.098-8.966s-4.522-13.374-10.098-13.374c-5.576 0-10.095 6.028-10.095 13.374s4.519 8.966 10.095 8.966z"></path>
<path fill="#eaadcc" d="M16.637 20.864c0 0.37-0.646 0.671-1.442 0.671s-1.442-0.3-1.442-0.671c0-0.37 0.646-0.671 1.442-0.671s1.442 0.3 1.442 0.671z"></path>
<path fill="#eaadcc" d="M6.027 20.637c-0.045 0.368-0.723 0.587-1.513 0.49s-1.395-0.474-1.35-0.842c0.045-0.368 0.723-0.587 1.513-0.49s1.395 0.474 1.35 0.842z"></path>
<path fill="none" stroke="#000" stroke-linejoin="round" stroke-linecap="round" stroke-miterlimit="4" stroke-width="0.4025" d="M11.019 20.626c-0.434 0.353-0.935 0.497-1.504 0.432s-0.99-0.301-1.265-0.708"></path>
<path fill="#000" d="M5.433 17.135c0.398-0.014 0.764 0.135 1.034 0.387s0.444 0.606 0.458 1.005c0.014 0.398-0.135 0.764-0.387 1.034s-0.606 0.444-1.005 0.458c-0.398 0.014-0.764-0.135-1.034-0.387s-0.444-0.606-0.458-1.005c-0.014-0.398 0.135-0.764 0.387-1.034s0.606-0.444 1.005-0.458z"></path>
<path fill="#fff" d="M5.509 18.341c-0.009-0.259-0.227-0.462-0.486-0.453s-0.462 0.227-0.453 0.486 0.227 0.462 0.486 0.453c0.259-0.009 0.462-0.227 0.453-0.486z"></path>
<path fill="#000" d="M14.172 17.501c0.398-0.014 0.764 0.135 1.034 0.387s0.444 0.606 0.458 1.005c0.014 0.398-0.135 0.764-0.387 1.034s-0.606 0.444-1.005 0.458c-0.398 0.014-0.764-0.135-1.034-0.387s-0.444-0.606-0.458-1.005c-0.014-0.398 0.135-0.764 0.387-1.034s0.607-0.444 1.005-0.458z"></path>
<path fill="#fff" d="M6.724 18.533c0.024 0.685-0.512 1.26-1.197 1.284s-1.26-0.512-1.284-1.197c-0.024-0.685 0.512-1.26 1.197-1.284s1.26 0.512 1.284 1.197zM7.126 18.519c-0.032-0.907-0.793-1.617-1.7-1.585s-1.617 0.793-1.585 1.7c0.032 0.907 0.793 1.617 1.7 1.585s1.617-0.793 1.585-1.7z"></path>
<path fill="#fff" d="M15.463 18.899c0.024 0.685-0.512 1.26-1.197 1.284s-1.26-0.512-1.284-1.197c-0.024-0.685 0.512-1.26 1.197-1.284s1.26 0.512 1.284 1.197zM15.865 18.885c-0.032-0.907-0.793-1.617-1.7-1.585s-1.617 0.793-1.585 1.7c0.032 0.907 0.793 1.617 1.7 1.585s1.617-0.793 1.585-1.7z"></path>
<path fill="#fff" d="M14.248 18.707c-0.009-0.259-0.227-0.462-0.486-0.453s-0.462 0.227-0.453 0.486 0.227 0.462 0.486 0.453 0.462-0.227 0.453-0.486z"></path>
<path fill="none" stroke="#ecb732" stroke-linejoin="miter" stroke-linecap="round" stroke-miterlimit="4" stroke-width="0.7379" d="M2.449 23.715l4.964 5.166"></path>
<path fill="none" stroke="#ecb732" stroke-linejoin="miter" stroke-linecap="round" stroke-miterlimit="4" stroke-width="0.7379" d="M6.742 24.319l-3.153 3.354"></path>
<path fill="none" stroke="#ecb732" stroke-linejoin="miter" stroke-linecap="round" stroke-miterlimit="4" stroke-width="0.7379" d="M17.677 23.715l-4.964 5.166"></path>
<path fill="none" stroke="#ecb732" stroke-linejoin="miter" stroke-linecap="round" stroke-miterlimit="4" stroke-width="0.7379" d="M13.384 24.319l3.153 3.354"></path>
<path fill="none" stroke="#ffc73b" stroke-linejoin="miter" stroke-linecap="round" stroke-miterlimit="4" stroke-width="0.7379" d="M12.109 12.31l-3.287 3.287"></path>
<path fill="none" stroke="#ffc73b" stroke-linejoin="miter" stroke-linecap="round" stroke-miterlimit="4" stroke-width="0.7379" d="M11.438 15.597l-3.287-3.287"></path>
</svg>
