<!-- Generated by IcoMoon.io -->
<svg version="1.1" xmlns="http://www.w3.org/2000/svg" width="36" height="32" viewBox="0 0 36 32">
<path fill="#00435b" d="M21.98 19.824l-0.683 1.186c-0.206 0.357-0.587 0.578-0.999 0.578h-5.234c-0.412 0-0.793-0.22-0.999-0.578l-0.683-1.186h8.599zM23.892 16.503l-1.205 2.092h-10.015l-1.205-2.092h12.424zM22.732 13.256l1.162 2.018h-12.428l1.162-2.018h10.103zM20.297 10.186c0.412 0 0.793 0.22 0.999 0.578l0.727 1.263h-8.687l0.727-1.263c0.206-0.357 0.587-0.578 0.999-0.578h5.234z"></path>
<path fill="#002b3b" d="M7.447 9.635c-0.58-2.811-0.704-4.967-0.329-6.533 0.223-0.931 0.63-1.691 1.25-2.239 0.654-0.579 1.481-0.863 2.41-0.863 1.533 0 3.145 0.699 4.867 2.027 0.703 0.542 1.432 1.195 2.189 1.959 0.060-0.078 0.128-0.151 0.204-0.218 2.141-1.908 3.943-3.093 5.485-3.55 0.917-0.272 1.777-0.298 2.561-0.034 0.827 0.278 1.486 0.854 1.951 1.66 0.767 1.33 0.97 3.078 0.684 5.236-0.117 0.88-0.316 1.838-0.598 2.876 0.106 0.013 0.213 0.036 0.318 0.071 2.716 0.9 4.639 1.868 5.804 2.974 0.693 0.658 1.145 1.391 1.309 2.202 0.173 0.856 0.004 1.715-0.46 2.52-0.766 1.328-2.175 2.376-4.181 3.206-0.806 0.333-1.717 0.635-2.736 0.906 0.046 0.105 0.083 0.216 0.107 0.333 0.58 2.811 0.704 4.967 0.329 6.533-0.223 0.931-0.63 1.691-1.25 2.239-0.654 0.579-1.481 0.863-2.41 0.863-1.533 0-3.145-0.699-4.867-2.027-0.71-0.547-1.447-1.209-2.213-1.984-0.079 0.123-0.176 0.238-0.29 0.34-2.141 1.908-3.943 3.093-5.485 3.55-0.917 0.272-1.777 0.298-2.561 0.034-0.827-0.278-1.486-0.854-1.951-1.66-0.767-1.33-0.97-3.078-0.684-5.236 0.121-0.912 0.331-1.907 0.629-2.989-0.117-0.012-0.233-0.036-0.349-0.075-2.716-0.9-4.639-1.868-5.804-2.974-0.693-0.658-1.145-1.391-1.309-2.202-0.173-0.856-0.004-1.715 0.46-2.52 0.766-1.328 2.175-2.376 4.181-3.206 0.83-0.343 1.772-0.653 2.827-0.931-0.038-0.092-0.067-0.189-0.088-0.29z"></path>
<path fill="#ff4154" d="M26.386 22.446c0.27-0.048 0.529 0.125 0.589 0.391l0.003 0.016 0.029 0.149c0.934 4.908 0.276 7.362-1.973 7.362-2.2 0-5.001-2.094-8.402-6.282-0.075-0.093-0.116-0.208-0.115-0.328 0.002-0.278 0.225-0.502 0.501-0.508h0.016l0.179 0.001c1.431 0.008 2.823-0.042 4.174-0.15 1.596-0.127 3.262-0.344 4.998-0.652zM10.942 18.736l0.009 0.015 0.090 0.157c0.72 1.252 1.471 2.441 2.251 3.565 0.919 1.325 1.953 2.666 3.101 4.023 0.178 0.21 0.157 0.522-0.043 0.707l-0.013 0.012-0.116 0.099c-3.799 3.255-6.268 3.905-7.408 1.95-1.115-1.914-0.711-5.395 1.213-10.441 0.042-0.111 0.122-0.204 0.225-0.263 0.241-0.137 0.546-0.058 0.691 0.177zM28.314 11.494l0.016 0.005 0.143 0.049c4.689 1.631 6.471 3.424 5.345 5.378-1.101 1.911-4.303 3.303-9.606 4.174-0.118 0.019-0.24-0.003-0.343-0.064-0.244-0.143-0.326-0.458-0.182-0.701 0.759-1.292 1.443-2.577 2.052-3.856 0.69-1.45 1.338-3.007 1.943-4.671 0.092-0.252 0.361-0.389 0.617-0.319l0.016 0.005zM11.749 10.673c0.244 0.143 0.325 0.458 0.182 0.701-0.759 1.292-1.443 2.577-2.052 3.856-0.69 1.45-1.338 3.007-1.943 4.671-0.094 0.257-0.372 0.395-0.632 0.315l-0.016-0.005-0.143-0.049c-4.689-1.631-6.471-3.424-5.345-5.378 1.101-1.911 4.303-3.303 9.606-4.174 0.118-0.019 0.24 0.003 0.343 0.064zM26.804 2.638c1.115 1.914 0.711 5.395-1.213 10.441-0.042 0.111-0.122 0.204-0.225 0.263-0.241 0.137-0.546 0.058-0.691-0.177l-0.009-0.015-0.090-0.157c-0.72-1.252-1.471-2.441-2.251-3.565-0.919-1.325-1.953-2.666-3.101-4.023-0.178-0.21-0.157-0.522 0.043-0.707l0.013-0.012 0.116-0.099c3.799-3.255 6.268-3.905 7.408-1.95zM10.775 1.473c2.2 0 5.001 2.094 8.402 6.282 0.075 0.093 0.116 0.208 0.115 0.328-0.002 0.278-0.225 0.502-0.501 0.508h-0.016l-0.179-0.001c-1.431-0.008-2.823 0.042-4.174 0.15-1.595 0.127-3.262 0.344-4.998 0.652-0.27 0.048-0.529-0.125-0.589-0.391l-0.003-0.016-0.029-0.149c-0.934-4.908-0.276-7.362 1.973-7.362z"></path>
<path fill="#ffd94c" d="M15.484 10.25h4.393c0.642 0 1.236 0.344 1.556 0.901l2.206 3.844c0.317 0.553 0.317 1.233 0 1.786l-2.206 3.844c-0.32 0.557-0.913 0.901-1.556 0.901h-4.393c-0.642 0-1.236-0.344-1.556-0.901l-2.206-3.844c-0.317-0.553-0.317-1.233 0-1.786l2.206-3.844c0.32-0.557 0.913-0.901 1.556-0.901zM19.208 11.41c0.643 0 1.236 0.344 1.556 0.902l1.538 2.684c0.317 0.553 0.317 1.232 0 1.784l-1.538 2.684c-0.32 0.558-0.913 0.902-1.556 0.902h-3.054c-0.643 0-1.236-0.344-1.556-0.902l-1.538-2.684c-0.317-0.552-0.317-1.232 0-1.784l1.538-2.684c0.32-0.558 0.913-0.902 1.556-0.902h3.054zM18.486 12.679h-1.611c-0.642 0-1.235 0.343-1.555 0.9v0l-0.813 1.415c-0.318 0.553-0.318 1.234 0 1.787v0l0.813 1.415c0.32 0.557 0.913 0.9 1.555 0.9v0h1.611c0.642 0 1.235-0.343 1.555-0.9v0l0.813-1.415c0.318-0.553 0.318-1.234 0-1.787v0l-0.813-1.415c-0.32-0.557-0.913-0.9-1.555-0.9v0zM17.791 13.893c0.642 0 1.234 0.343 1.555 0.899l0.115 0.2c0.319 0.554 0.319 1.236 0 1.79l-0.115 0.2c-0.32 0.556-0.913 0.899-1.555 0.899h-0.221c-0.642 0-1.234-0.343-1.555-0.899l-0.115-0.2c-0.319-0.554-0.319-1.236 0-1.79l0.115-0.2c0.32-0.556 0.913-0.899 1.555-0.899h0.221zM17.681 15.089c-0.286 0-0.549 0.152-0.692 0.399s-0.143 0.551 0 0.798c0.143 0.247 0.406 0.399 0.691 0.399v0c0.286 0 0.549-0.152 0.692-0.399s0.143-0.551 0-0.798c-0.143-0.247-0.406-0.399-0.691-0.399v0zM11.21 15.887h1.436z"></path>
</svg>
