<!-- Generated by IcoMoon.io -->
<svg version="1.1" xmlns="http://www.w3.org/2000/svg" width="32" height="32" viewBox="0 0 32 32">
<path fill="#00d8ff" d="M26.31 10.978c-0.332-0.114-0.676-0.222-1.030-0.325 0.058-0.238 0.112-0.472 0.159-0.703 0.78-3.785 0.27-6.834-1.471-7.838-1.669-0.963-4.399 0.041-7.157 2.441-0.265 0.231-0.531 0.475-0.797 0.731-0.177-0.169-0.354-0.333-0.53-0.49-2.89-2.566-5.786-3.647-7.526-2.64-1.668 0.965-2.162 3.832-1.46 7.419 0.068 0.347 0.147 0.7 0.237 1.060-0.41 0.116-0.806 0.24-1.184 0.372-3.388 1.181-5.552 3.032-5.552 4.953 0 1.983 2.323 3.972 5.851 5.178 0.278 0.095 0.567 0.185 0.865 0.271-0.097 0.389-0.181 0.77-0.251 1.142-0.669 3.525-0.147 6.324 1.517 7.283 1.718 0.991 4.601-0.028 7.409-2.482 0.222-0.194 0.445-0.4 0.668-0.615 0.289 0.278 0.578 0.542 0.865 0.789 2.72 2.34 5.406 3.285 7.067 2.323 1.716-0.994 2.274-4 1.55-7.659-0.055-0.279-0.12-0.565-0.192-0.855 0.203-0.060 0.401-0.122 0.595-0.186 3.668-1.215 6.055-3.18 6.055-5.19 0-1.927-2.233-3.791-5.69-4.981v0zM25.515 19.851c-0.175 0.058-0.355 0.114-0.537 0.168-0.405-1.282-0.952-2.645-1.62-4.054 0.638-1.375 1.164-2.721 1.557-3.995 0.327 0.095 0.645 0.195 0.951 0.3 2.961 1.019 4.768 2.527 4.768 3.688 0 1.237-1.951 2.843-5.118 3.892v0zM24.2 22.455c0.32 1.618 0.366 3.080 0.154 4.223-0.191 1.027-0.574 1.712-1.048 1.987-1.008 0.584-3.165-0.175-5.491-2.176-0.267-0.229-0.535-0.474-0.805-0.734 0.902-0.986 1.803-2.133 2.682-3.406 1.547-0.137 3.009-0.362 4.334-0.668 0.065 0.263 0.123 0.522 0.173 0.774v0zM10.91 28.564c-0.985 0.348-1.77 0.358-2.244 0.084-1.009-0.582-1.429-2.829-0.857-5.844 0.066-0.345 0.144-0.7 0.234-1.062 1.311 0.29 2.762 0.498 4.312 0.624 0.885 1.246 1.813 2.391 2.747 3.394-0.204 0.197-0.408 0.385-0.61 0.561-1.242 1.085-2.486 1.855-3.582 2.242v0zM6.294 19.843c-1.56-0.533-2.849-1.226-3.732-1.983-0.794-0.68-1.194-1.355-1.194-1.902 0-1.165 1.737-2.651 4.635-3.662 0.352-0.123 0.72-0.238 1.101-0.347 0.4 1.303 0.926 2.664 1.56 4.041-0.642 1.398-1.175 2.781-1.579 4.099-0.272-0.078-0.536-0.161-0.79-0.247v0zM7.841 9.311c-0.601-3.073-0.202-5.392 0.803-5.974 1.071-0.62 3.438 0.264 5.933 2.479 0.159 0.142 0.32 0.29 0.48 0.443-0.93 0.998-1.848 2.135-2.726 3.373-1.505 0.139-2.946 0.364-4.27 0.664-0.083-0.335-0.157-0.664-0.22-0.986v0zM21.644 12.719c-0.317-0.547-0.642-1.081-0.973-1.6 1.021 0.129 1.999 0.3 2.918 0.51-0.276 0.884-0.62 1.808-1.024 2.755-0.29-0.551-0.597-1.107-0.921-1.665v0zM16.015 7.237c0.631 0.683 1.262 1.446 1.883 2.273-0.626-0.030-1.259-0.045-1.898-0.045-0.633 0-1.262 0.015-1.884 0.044 0.622-0.82 1.259-1.581 1.899-2.272v0zM10.35 12.729c-0.316 0.548-0.618 1.101-0.903 1.655-0.398-0.944-0.739-1.873-1.017-2.769 0.913-0.204 1.887-0.371 2.901-0.498-0.336 0.524-0.664 1.062-0.981 1.612v0zM11.36 20.898c-1.048-0.117-2.036-0.275-2.949-0.474 0.283-0.912 0.631-1.861 1.037-2.825 0.286 0.553 0.589 1.106 0.907 1.656v0c0.324 0.56 0.66 1.108 1.005 1.643v0zM16.053 24.777c-0.648-0.699-1.294-1.472-1.925-2.304 0.613 0.024 1.237 0.036 1.872 0.036 0.652 0 1.297-0.015 1.932-0.043-0.623 0.847-1.252 1.621-1.879 2.311v0zM22.578 17.55c0.428 0.975 0.788 1.918 1.075 2.815-0.928 0.212-1.93 0.382-2.985 0.509 0.332-0.526 0.66-1.070 0.982-1.628 0.326-0.565 0.636-1.131 0.928-1.695v0zM20.466 18.562c-0.5 0.867-1.014 1.695-1.535 2.477-0.95 0.068-1.931 0.103-2.93 0.103-0.996 0-1.964-0.031-2.897-0.091-0.542-0.792-1.067-1.622-1.564-2.481v0c-0.496-0.856-0.952-1.72-1.365-2.578 0.413-0.861 0.868-1.725 1.361-2.58v0c0.494-0.857 1.014-1.683 1.552-2.47 0.952-0.072 1.928-0.109 2.914-0.109v0c0.991 0 1.968 0.038 2.919 0.11 0.529 0.781 1.046 1.605 1.542 2.462 0.502 0.867 0.963 1.725 1.38 2.567-0.416 0.857-0.875 1.724-1.375 2.59v0zM23.286 3.297c1.072 0.618 1.488 3.11 0.815 6.378-0.043 0.209-0.091 0.421-0.144 0.636-1.328-0.306-2.769-0.534-4.279-0.676-0.879-1.252-1.79-2.39-2.705-3.376 0.246-0.237 0.491-0.462 0.736-0.675 2.362-2.056 4.57-2.868 5.576-2.288v0zM16 13.101c1.578 0 2.858 1.279 2.858 2.857s-1.279 2.858-2.858 2.858-2.857-1.279-2.857-2.857c0-1.578 1.279-2.857 2.857-2.857v0z"></path>
</svg>
