<!-- Generated by IcoMoon.io -->
<svg version="1.1" xmlns="http://www.w3.org/2000/svg" width="32" height="32" viewBox="0 0 32 32">
<path fill="#764abc" d="M21.787 21.556c1.107-0.113 1.947-1.051 1.909-2.177s-0.993-2.027-2.138-2.027h-0.076c-1.184 0.038-2.1 1.013-2.061 2.177 0.038 0.563 0.267 1.051 0.611 1.389-1.298 2.515-3.283 4.354-6.261 5.893-2.023 1.051-4.123 1.426-6.223 1.164-1.718-0.225-3.054-0.976-3.894-2.215-1.222-1.839-1.336-3.828-0.305-5.818 0.725-1.426 1.871-2.477 2.596-3.003-0.153-0.488-0.382-1.314-0.496-1.914-5.536 3.941-4.963 9.271-3.283 11.785 1.26 1.877 3.818 3.040 6.643 3.040 0.763 0 1.527-0.075 2.291-0.263 4.887-0.938 8.59-3.791 10.689-8.032zM28.506 16.902c-2.901-3.341-7.177-5.18-12.064-5.18h-0.611c-0.344-0.676-1.069-1.126-1.871-1.126h-0.076c-1.183 0.038-2.099 1.013-2.061 2.177 0.038 1.126 0.992 2.027 2.138 2.027h0.076c0.84-0.037 1.565-0.563 1.871-1.276h0.687c2.901 0 5.65 0.826 8.132 2.44 1.909 1.239 3.283 2.853 4.047 4.804 0.649 1.576 0.611 3.115-0.076 4.429-1.069 1.989-2.863 3.078-5.23 3.078-1.527 0-2.978-0.45-3.741-0.788-0.42 0.375-1.183 0.976-1.718 1.351 1.642 0.751 3.321 1.163 4.925 1.163 3.665 0 6.375-1.989 7.406-3.979 1.107-2.177 1.031-5.93-1.832-9.121zM9.112 22.194c0.038 1.126 0.993 2.027 2.138 2.027h0.076c1.183-0.037 2.1-1.013 2.061-2.177-0.038-1.126-0.993-2.027-2.138-2.027h-0.076c-0.076 0-0.191 0-0.267 0.037-1.565-2.552-2.214-5.33-1.985-8.332 0.153-2.252 0.916-4.204 2.252-5.818 1.107-1.389 3.245-2.064 4.696-2.102 4.047-0.075 5.764 4.879 5.879 6.869 0.496 0.113 1.336 0.375 1.909 0.563-0.458-6.080-4.276-9.233-7.941-9.233-3.436 0-6.605 2.44-7.864 6.043-1.756 4.804-0.611 9.421 1.527 13.062-0.191 0.263-0.305 0.676-0.267 1.088v-0z"></path>
</svg>
