<!-- Generated by IcoMoon.io -->
<svg version="1.1" xmlns="http://www.w3.org/2000/svg" width="32" height="32" viewBox="0 0 32 32">
<path fill="#cd6799" d="M27.535 17.814c-1.113 0.006-2.081 0.274-2.891 0.67-0.297-0.589-0.595-1.113-0.647-1.498-0.058-0.449-0.128-0.723-0.058-1.259s0.385-1.3 0.379-1.358c-0.006-0.058-0.070-0.332-0.711-0.338s-1.195 0.122-1.259 0.291c-0.064 0.169-0.187 0.554-0.268 0.95-0.111 0.583-1.282 2.664-1.953 3.754-0.216-0.425-0.402-0.799-0.443-1.096-0.058-0.449-0.128-0.723-0.058-1.259s0.385-1.3 0.379-1.358c-0.006-0.058-0.070-0.332-0.711-0.338s-1.195 0.122-1.259 0.291c-0.064 0.169-0.134 0.565-0.268 0.95s-1.69 3.859-2.098 4.756c-0.21 0.46-0.391 0.828-0.519 1.078v0c0 0-0.006 0.017-0.023 0.047-0.111 0.216-0.175 0.332-0.175 0.332s0 0 0 0.006c-0.087 0.157-0.181 0.303-0.227 0.303-0.035 0-0.099-0.42 0.012-0.991 0.233-1.207 0.787-3.083 0.781-3.148 0-0.035 0.105-0.361-0.361-0.53-0.455-0.169-0.618 0.111-0.659 0.111s-0.070 0.099-0.070 0.099c0 0 0.507-2.11-0.968-2.11-0.921 0-2.192 1.008-2.821 1.918-0.396 0.216-1.242 0.676-2.145 1.172-0.344 0.192-0.699 0.385-1.032 0.565-0.023-0.023-0.047-0.052-0.070-0.076-1.784-1.906-5.083-3.252-4.943-5.811 0.052-0.933 0.373-3.381 6.336-6.353 4.908-2.419 8.813-1.749 9.489-0.262 0.968 2.122-2.093 6.062-7.164 6.633-1.935 0.216-2.949-0.53-3.206-0.81-0.268-0.291-0.309-0.309-0.408-0.251-0.163 0.087-0.058 0.35 0 0.501 0.152 0.396 0.775 1.096 1.83 1.44 0.933 0.303 3.2 0.472 5.945-0.589 3.072-1.189 5.473-4.494 4.768-7.263-0.705-2.809-5.368-3.736-9.781-2.168-2.623 0.933-5.467 2.401-7.513 4.313-2.431 2.273-2.815 4.249-2.658 5.077 0.565 2.938 4.616 4.85 6.237 6.266-0.082 0.047-0.157 0.087-0.221 0.122-0.81 0.402-3.899 2.017-4.669 3.725-0.874 1.935 0.14 3.322 0.81 3.509 2.081 0.577 4.22-0.46 5.368-2.174s1.008-3.94 0.478-4.96c-0.006-0.012-0.012-0.023-0.023-0.035 0.21-0.122 0.425-0.251 0.635-0.373 0.414-0.245 0.822-0.472 1.172-0.659-0.198 0.542-0.344 1.189-0.414 2.122-0.087 1.096 0.361 2.518 0.95 3.078 0.262 0.245 0.571 0.251 0.769 0.251 0.688 0 0.997-0.571 1.341-1.247 0.42-0.828 0.799-1.789 0.799-1.789s-0.472 2.6 0.81 2.6c0.466 0 0.938-0.606 1.148-0.915v0.006c0 0 0.012-0.017 0.035-0.058 0.047-0.076 0.076-0.122 0.076-0.122v-0.012c0.187-0.326 0.606-1.067 1.23-2.297 0.804-1.585 1.58-3.567 1.58-3.567s0.070 0.484 0.309 1.288c0.14 0.472 0.431 0.991 0.664 1.492-0.187 0.262-0.303 0.408-0.303 0.408s0 0 0.006 0.006c-0.152 0.198-0.315 0.414-0.495 0.624-0.635 0.758-1.393 1.626-1.498 1.877-0.122 0.297-0.093 0.513 0.14 0.688 0.169 0.128 0.472 0.146 0.781 0.128 0.571-0.041 0.973-0.181 1.172-0.268 0.309-0.111 0.67-0.28 1.008-0.53 0.624-0.46 1.003-1.119 0.968-1.988-0.017-0.478-0.175-0.956-0.367-1.405 0.058-0.082 0.111-0.163 0.169-0.245 0.985-1.44 1.749-3.019 1.749-3.019s0.070 0.484 0.309 1.288c0.117 0.408 0.356 0.851 0.565 1.282-0.927 0.752-1.498 1.626-1.702 2.197-0.367 1.061-0.082 1.539 0.46 1.65 0.245 0.052 0.595-0.064 0.851-0.175 0.326-0.105 0.711-0.286 1.078-0.554 0.624-0.46 1.224-1.102 1.189-1.97-0.017-0.396-0.122-0.787-0.268-1.166 0.787-0.326 1.801-0.507 3.095-0.356 2.774 0.326 3.322 2.058 3.218 2.786s-0.688 1.125-0.88 1.247c-0.192 0.122-0.256 0.163-0.239 0.251 0.023 0.128 0.117 0.122 0.28 0.099 0.227-0.041 1.457-0.589 1.51-1.929 0.087-1.714-1.545-3.585-4.43-3.567v0zM6.132 25.030c-0.921 1.003-2.203 1.381-2.757 1.061-0.595-0.344-0.361-1.824 0.769-2.885 0.688-0.647 1.574-1.247 2.162-1.615 0.134-0.082 0.332-0.198 0.571-0.344 0.041-0.023 0.064-0.035 0.064-0.035v0c0.047-0.029 0.093-0.058 0.14-0.087 0.414 1.515 0.018 2.85-0.95 3.905v0zM12.835 20.472c-0.321 0.781-0.991 2.78-1.399 2.67-0.35-0.093-0.565-1.609-0.070-3.107 0.251-0.752 0.781-1.65 1.090-1.999 0.501-0.56 1.055-0.746 1.189-0.519 0.169 0.297-0.612 2.466-0.81 2.955v0zM18.366 23.118c-0.134 0.070-0.262 0.117-0.321 0.082-0.041-0.023 0.058-0.117 0.058-0.117s0.694-0.746 0.968-1.084c0.157-0.198 0.344-0.431 0.542-0.694v0.076c0 0.892-0.863 1.492-1.247 1.737v0zM22.633 22.145c-0.099-0.070-0.082-0.303 0.251-1.032 0.128-0.286 0.431-0.764 0.95-1.224 0.058 0.187 0.099 0.367 0.093 0.536-0.006 1.125-0.81 1.545-1.294 1.72v0z"></path>
</svg>
